<svg width="18" height="19" viewBox="0 0 18 19" fill="none" xmlns="http://www.w3.org/2000/svg">
<path d="M8 10.5C8.28333 10.5 8.52083 10.4042 8.7125 10.2125C8.90417 10.0208 9 9.78333 9 9.5C9 9.21667 8.90417 8.97917 8.7125 8.7875C8.52083 8.59583 8.28333 8.5 8 8.5C7.71667 8.5 7.47917 8.59583 7.2875 8.7875C7.09583 8.97917 7 9.21667 7 9.5C7 9.78333 7.09583 10.0208 7.2875 10.2125C7.47917 10.4042 7.71667 10.5 8 10.5ZM4 18.5V16.5L10 15.5V4.375C10 4.125 9.925 3.9 9.775 3.7C9.625 3.5 9.43333 3.38333 9.2 3.35L4 2.5V0.5L9.5 1.4C10.2333 1.53333 10.8333 1.875 11.3 2.425C11.7667 2.975 12 3.61667 12 4.35V17.15L4 18.5ZM0 18.5V16.5H2V2.5C2 1.93333 2.19583 1.45833 2.5875 1.075C2.97917 0.691667 3.45 0.5 4 0.5H14C14.5667 0.5 15.0417 0.691667 15.425 1.075C15.8083 1.45833 16 1.93333 16 2.5V16.5H18V18.5H0ZM4 16.5H14V2.5H4V16.5Z" fill="white"/>
</svg>
