<svg width="31" height="20" viewBox="0 0 31 20" fill="none" xmlns="http://www.w3.org/2000/svg">
<path d="M6.75 20C4.97917 20 3.49479 19.401 2.29688 18.2031C1.09896 17.0052 0.5 15.5208 0.5 13.75C0.5 11.9792 1.10938 10.4948 2.32812 9.29688C3.54688 8.09896 5.02083 7.5 6.75 7.5C8.35417 7.5 9.70312 7.97917 10.7969 8.9375C11.8906 9.89583 12.5833 11.0833 12.875 12.5H13.6875L11.4375 6.25H9.25V3.75H15.5V6.25H14.125L14.5625 7.5H20.5625L18.75 2.5H15.5V0H18.75C19.2917 0 19.776 0.145833 20.2031 0.4375C20.6302 0.729167 20.9375 1.125 21.125 1.625L23.25 7.4375H24.25C25.9792 7.4375 27.4531 8.04688 28.6719 9.26562C29.8906 10.4844 30.5 11.9583 30.5 13.6875C30.5 15.4375 29.8958 16.9271 28.6875 18.1562C27.4792 19.3854 26 20 24.25 20C22.75 20 21.4323 19.5312 20.2969 18.5938C19.1615 17.6562 18.4375 16.4583 18.125 15H12.875C12.5833 16.4375 11.875 17.6302 10.75 18.5781C9.625 19.526 8.29167 20 6.75 20ZM6.75 17.5C7.60417 17.5 8.33854 17.2656 8.95312 16.7969C9.56771 16.3281 10 15.7292 10.25 15H6.75V12.5H10.25C10 11.75 9.56771 11.1458 8.95312 10.6875C8.33854 10.2292 7.60417 10 6.75 10C5.6875 10 4.79688 10.3594 4.07812 11.0781C3.35938 11.7969 3 12.6875 3 13.75C3 14.7917 3.35938 15.6771 4.07812 16.4062C4.79688 17.1354 5.6875 17.5 6.75 17.5ZM16.375 12.5H18.125C18.2292 12.0208 18.3698 11.5729 18.5469 11.1562C18.724 10.7396 18.9583 10.3542 19.25 10H15.4375L16.375 12.5ZM24.25 17.5C25.3125 17.5 26.2031 17.1354 26.9219 16.4062C27.6406 15.6771 28 14.7917 28 13.75C28 12.6875 27.6406 11.7969 26.9219 11.0781C26.2031 10.3594 25.3125 10 24.25 10H24.125L25.375 13.3125L23 14.1875L21.8125 10.875C21.3958 11.2292 21.0729 11.6458 20.8438 12.125C20.6146 12.6042 20.5 13.1458 20.5 13.75C20.5 14.7917 20.8594 15.6771 21.5781 16.4062C22.2969 17.1354 23.1875 17.5 24.25 17.5Z" fill="#22232C"/>
</svg>
