<svg width="22" height="20" viewBox="0 0 22 20" fill="none" xmlns="http://www.w3.org/2000/svg">
<path d="M3.66667 17.5V18.75C3.66667 19.1042 3.54954 19.401 3.31528 19.6406C3.08102 19.8802 2.79074 20 2.44444 20H1.22222C0.875926 20 0.585648 19.8802 0.351389 19.6406C0.11713 19.401 0 19.1042 0 18.75V8.75L2.56667 1.25C2.68889 0.875 2.90787 0.572917 3.22361 0.34375C3.53935 0.114583 3.89074 0 4.27778 0H17.7222C18.1093 0 18.4606 0.114583 18.7764 0.34375C19.0921 0.572917 19.3111 0.875 19.4333 1.25L22 8.75V18.75C22 19.1042 21.8829 19.401 21.6486 19.6406C21.4144 19.8802 21.1241 20 20.7778 20H19.5556C19.2093 20 18.919 19.8802 18.6847 19.6406C18.4505 19.401 18.3333 19.1042 18.3333 18.75V17.5H3.66667ZM3.42222 6.25H18.5778L17.2944 2.5H4.70556L3.42222 6.25ZM5.5 13.75C6.00926 13.75 6.44213 13.5677 6.79861 13.2031C7.15509 12.8385 7.33333 12.3958 7.33333 11.875C7.33333 11.3542 7.15509 10.9115 6.79861 10.5469C6.44213 10.1823 6.00926 10 5.5 10C4.99074 10 4.55787 10.1823 4.20139 10.5469C3.84491 10.9115 3.66667 11.3542 3.66667 11.875C3.66667 12.3958 3.84491 12.8385 4.20139 13.2031C4.55787 13.5677 4.99074 13.75 5.5 13.75ZM16.5 13.75C17.0093 13.75 17.4421 13.5677 17.7986 13.2031C18.1551 12.8385 18.3333 12.3958 18.3333 11.875C18.3333 11.3542 18.1551 10.9115 17.7986 10.5469C17.4421 10.1823 17.0093 10 16.5 10C15.9907 10 15.5579 10.1823 15.2014 10.5469C14.8449 10.9115 14.6667 11.3542 14.6667 11.875C14.6667 12.3958 14.8449 12.8385 15.2014 13.2031C15.5579 13.5677 15.9907 13.75 16.5 13.75ZM2.44444 15H19.5556V8.75H2.44444V15Z" fill="#22232C"/>
</svg>
