<svg width="18" height="20" viewBox="0 0 18 20" fill="none" xmlns="http://www.w3.org/2000/svg">
<path d="M5.40499 20C4.90954 20 4.48539 19.8042 4.13257 19.4125C3.77974 19.0208 3.60333 18.55 3.60333 18C3.60333 17.45 3.77974 16.9792 4.13257 16.5875C4.48539 16.1958 4.90954 16 5.40499 16C5.90045 16 6.32459 16.1958 6.67742 16.5875C7.03025 16.9792 7.20666 17.45 7.20666 18C7.20666 18.55 7.03025 19.0208 6.67742 19.4125C6.32459 19.8042 5.90045 20 5.40499 20ZM14.4133 20C13.9179 20 13.4937 19.8042 13.1409 19.4125C12.7881 19.0208 12.6117 18.55 12.6117 18C12.6117 17.45 12.7881 16.9792 13.1409 16.5875C13.4937 16.1958 13.9179 16 14.4133 16C14.9088 16 15.3329 16.1958 15.6857 16.5875C16.0386 16.9792 16.215 17.45 16.215 18C16.215 18.55 16.0386 19.0208 15.6857 19.4125C15.3329 19.8042 14.9088 20 14.4133 20ZM4.63929 4L6.80128 9H13.1071L15.5844 4H4.63929ZM3.7835 2H17.0708C17.4161 2 17.6788 2.17083 17.859 2.5125C18.0392 2.85417 18.0467 3.2 17.8815 3.55L14.6836 9.95C14.5184 10.2833 14.297 10.5417 14.0192 10.725C13.7414 10.9083 13.4374 11 13.1071 11H6.39591L5.40499 13H16.215V15H5.40499C4.72937 15 4.2189 14.6708 3.87358 14.0125C3.52826 13.3542 3.51325 12.7 3.82854 12.05L5.04466 9.6L1.80166 2H0V0H2.9277L3.7835 2Z" fill="white"/>
</svg>
