<svg width="18" height="21" viewBox="0 0 18 21" fill="none" xmlns="http://www.w3.org/2000/svg">
<path d="M4.5 16.5H13.5V14.5H4.5V16.5ZM4.5 12.5H13.5V10.5H4.5V12.5ZM2.25 20.5C1.63125 20.5 1.10156 20.3042 0.660937 19.9125C0.220312 19.5208 0 19.05 0 18.5V2.5C0 1.95 0.220312 1.47917 0.660937 1.0875C1.10156 0.695833 1.63125 0.5 2.25 0.5H11.25L18 6.5V18.5C18 19.05 17.7797 19.5208 17.3391 19.9125C16.8984 20.3042 16.3687 20.5 15.75 20.5H2.25ZM10.125 7.5V2.5H2.25V18.5H15.75V7.5H10.125Z" fill="white"/>
</svg>
