<svg width="21" height="23" viewBox="0 0 21 23" fill="none" xmlns="http://www.w3.org/2000/svg">
<rect x="0.015625" y="0.878906" width="20" height="22.1212" rx="4" fill="#D81F47"/>
<path d="M6.89062 18.0001C6.54688 18.0001 6.25271 17.8684 6.00812 17.6048C5.76312 17.3409 5.64062 17.0237 5.64062 16.6533V7.89911H5.01562V6.55231H8.14062V5.87891H11.8906V6.55231H15.0156V7.89911H14.3906V16.6533C14.3906 17.0237 14.2683 17.3409 14.0238 17.6048C13.7788 17.8684 13.4844 18.0001 13.1406 18.0001H6.89062ZM13.1406 7.89911H6.89062V16.6533H13.1406V7.89911ZM8.14062 15.3065H9.39062V9.24591H8.14062V15.3065ZM10.6406 15.3065H11.8906V9.24591H10.6406V15.3065Z" fill="white"/>
</svg>
