<svg width="10" height="6" viewBox="0 0 10 6" fill="none" xmlns="http://www.w3.org/2000/svg">
<path d="M9.77988 0.341872C9.6389 0.200933 9.44771 0.121757 9.24837 0.121757C9.04902 0.121757 8.85783 0.200933 8.71685 0.341872L4.99546 4.06326L1.27408 0.341872C1.13229 0.204926 0.94238 0.12915 0.745262 0.130863C0.548143 0.132576 0.359584 0.211641 0.220195 0.35103C0.0808067 0.490419 0.00174141 0.678978 2.86102e-05 0.876097C-0.00168419 1.07322 0.0740929 1.26312 0.211038 1.40491L4.46394 5.65781C4.60492 5.79875 4.79611 5.87793 4.99546 5.87793C5.19481 5.87793 5.386 5.79875 5.52698 5.65781L9.77988 1.40491C9.92082 1.26393 10 1.07274 10 0.873391C10 0.674042 9.92082 0.482854 9.77988 0.341872Z" fill="#22232C"/>
</svg>
