<svg width="22" height="23" viewBox="0 0 22 23" fill="none" xmlns="http://www.w3.org/2000/svg">
<rect y="0.939453" width="21.0157" height="22" rx="4" fill="#3A3AC5"/>
<path d="M6.20548 16.6244H7.04932L12.2479 10.9532L11.4041 10.0326L6.20548 15.7038V16.6244ZM14.8247 9.99973L12.263 7.23808L13.1069 6.31754C13.3379 6.06548 13.6217 5.93945 13.9582 5.93945C14.2948 5.93945 14.5785 6.06548 14.8096 6.31754L15.6534 7.23808C15.8845 7.49014 16.005 7.79425 16.0151 8.15041C16.0251 8.50658 15.9146 8.81069 15.6836 9.06274L14.8247 9.99973ZM13.9507 10.9696L7.56164 17.9395H5V15.1449L11.389 8.17507L13.9507 10.9696Z" fill="white"/>
</svg>
