<svg width="14" height="20" viewBox="0 0 14 20" fill="none" xmlns="http://www.w3.org/2000/svg">
<path d="M1.5 20L4.3 6.88372L2.5 7.53488V10.6977H0.5V6.32558L5.55 4.32558C5.78333 4.23256 6.02917 4.17829 6.2875 4.16279C6.54583 4.14729 6.79167 4.1783 7.025 4.25581C7.25833 4.33333 7.47917 4.44186 7.6875 4.5814C7.89583 4.72093 8.06667 4.89922 8.2 5.11628L9.2 6.60465C9.63333 7.25581 10.2208 7.7907 10.9625 8.2093C11.7042 8.62791 12.55 8.83721 13.5 8.83721V10.6977C12.3333 10.6977 11.2917 10.4729 10.375 10.0233C9.45833 9.57364 8.675 9 8.025 8.30233L7.4 11.1628L9.5 13.0233V20H7.5V13.9535L5.4 12.4651L3.6 20H1.5ZM8 3.72093C7.45 3.72093 6.97917 3.53876 6.5875 3.17442C6.19583 2.81008 6 2.37209 6 1.86047C6 1.34884 6.19583 0.910853 6.5875 0.546512C6.97917 0.182171 7.45 0 8 0C8.55 0 9.02083 0.182171 9.4125 0.546512C9.80417 0.910853 10 1.34884 10 1.86047C10 2.37209 9.80417 2.81008 9.4125 3.17442C9.02083 3.53876 8.55 3.72093 8 3.72093Z" fill="#22232C"/>
</svg>
