<svg width="18" height="19" viewBox="0 0 18 19" fill="none" xmlns="http://www.w3.org/2000/svg">
<g id="mingcute:down-fill" clip-path="url(#clip0_986_4598)">
<g id="Group">
<path id="Vector" fill-rule="evenodd" clip-rule="evenodd" d="M9.39615 12.5448C9.19693 12.7555 8.92688 12.8738 8.64531 12.8738C8.36375 12.8738 8.0937 12.7555 7.89448 12.5448L3.88673 8.30279C3.6875 8.09175 3.57562 7.80555 3.57568 7.50715C3.57575 7.20876 3.68776 6.92262 3.88709 6.71167C4.08641 6.50072 4.35671 6.38225 4.63852 6.38232C4.92034 6.38239 5.19059 6.501 5.38981 6.71204L8.64531 10.159L11.9008 6.71204C12.1011 6.50701 12.3695 6.39349 12.648 6.39591C12.9266 6.39833 13.1932 6.51651 13.3903 6.725C13.5873 6.93349 13.6992 7.2156 13.7018 7.51057C13.7043 7.80554 13.5973 8.08977 13.4039 8.30204L9.39686 12.5455L9.39615 12.5448Z" fill="#FCFCFC"/>
</g>
</g>
<defs>
<clipPath id="clip0_986_4598">
<rect width="17" height="18" fill="white" transform="translate(0.145508 0.5)"/>
</clipPath>
</defs>
</svg>
