<svg width="18" height="17" viewBox="0 0 18 17" fill="none" xmlns="http://www.w3.org/2000/svg">
<path d="M17.062 7.64914V14.7707C17.062 15.2634 16.8868 15.6853 16.5362 16.0365C16.1851 16.387 15.7631 16.5623 15.2705 16.5623H2.72933C2.23664 16.5623 1.81502 16.387 1.46446 16.0365C1.11331 15.6853 0.937736 15.2634 0.937736 14.7707V7.64914C0.594347 7.33561 0.32949 6.9325 0.143165 6.43982C-0.0437576 5.94713 -0.0476394 5.40965 0.13152 4.82739L1.0721 1.78168C1.19154 1.3935 1.40444 1.07251 1.71081 0.818701C2.01657 0.564893 2.37101 0.437988 2.77412 0.437988H15.2257C15.6288 0.437988 15.9796 0.561011 16.2782 0.807056C16.5768 1.0537 16.7933 1.37857 16.9277 1.78168L17.8683 4.82739C18.0474 5.40965 18.0438 5.93966 17.8575 6.41742C17.6706 6.89518 17.4054 7.30575 17.062 7.64914ZM10.9706 6.70856C11.3738 6.70856 11.6798 6.5703 11.8888 6.2938C12.0979 6.0179 12.18 5.70825 12.1352 5.36486L11.6425 2.22958H9.89569V5.54402C9.89569 5.85755 10.0002 6.13017 10.2092 6.36188C10.4182 6.593 10.672 6.70856 10.9706 6.70856ZM6.93956 6.70856C7.28295 6.70856 7.56304 6.593 7.77982 6.36188C7.99601 6.13017 8.1041 5.85755 8.1041 5.54402V2.22958H6.3573L5.86461 5.36486C5.80489 5.72318 5.88342 6.03671 6.1002 6.30545C6.31639 6.57419 6.59618 6.70856 6.93956 6.70856ZM2.95328 6.70856C3.22201 6.70856 3.45701 6.61151 3.65827 6.41742C3.86012 6.22333 3.98344 5.97699 4.02823 5.67839L4.52092 2.22958H2.77412L1.87832 5.23049C1.78874 5.52909 1.83711 5.85008 2.02344 6.19347C2.21036 6.53686 2.52031 6.70856 2.95328 6.70856ZM15.0465 6.70856C15.4795 6.70856 15.793 6.53686 15.9871 6.19347C16.1812 5.85008 16.226 5.52909 16.1215 5.23049L15.1809 2.22958H13.4789L13.9716 5.67839C14.0163 5.97699 14.1397 6.22333 14.3415 6.41742C14.5428 6.61151 14.7778 6.70856 15.0465 6.70856ZM2.72933 14.7707H15.2705V8.45536C15.1958 8.48522 15.1474 8.50015 15.1253 8.50015H15.0465C14.6434 8.50015 14.2887 8.43296 13.9823 8.29859C13.6765 8.16422 13.3744 7.94774 13.0758 7.64914C12.807 7.91788 12.501 8.1269 12.1576 8.2762C11.8142 8.4255 11.4484 8.50015 11.0602 8.50015C10.6571 8.50015 10.28 8.4255 9.92883 8.2762C9.57828 8.1269 9.26863 7.91788 8.99989 7.64914C8.74609 7.91788 8.45137 8.1269 8.11574 8.2762C7.77952 8.4255 7.41732 8.50015 7.02914 8.50015C6.59618 8.50015 6.20412 8.4255 5.85296 8.2762C5.50241 8.1269 5.19276 7.91788 4.92403 7.64914C4.6105 7.96267 4.30085 8.18274 3.99509 8.30934C3.68872 8.43654 3.34145 8.50015 2.95328 8.50015H2.85295C2.81532 8.50015 2.77412 8.48522 2.72933 8.45536V14.7707Z" fill="white"/>
</svg>
