<svg width="18" height="21" viewBox="0 0 18 21" fill="none" xmlns="http://www.w3.org/2000/svg">
<path d="M5.40499 20.5C4.90954 20.5 4.48539 20.3042 4.13257 19.9125C3.77974 19.5208 3.60333 19.05 3.60333 18.5C3.60333 17.95 3.77974 17.4792 4.13257 17.0875C4.48539 16.6958 4.90954 16.5 5.40499 16.5C5.90045 16.5 6.32459 16.6958 6.67742 17.0875C7.03025 17.4792 7.20666 17.95 7.20666 18.5C7.20666 19.05 7.03025 19.5208 6.67742 19.9125C6.32459 20.3042 5.90045 20.5 5.40499 20.5ZM14.4133 20.5C13.9179 20.5 13.4937 20.3042 13.1409 19.9125C12.7881 19.5208 12.6117 19.05 12.6117 18.5C12.6117 17.95 12.7881 17.4792 13.1409 17.0875C13.4937 16.6958 13.9179 16.5 14.4133 16.5C14.9088 16.5 15.3329 16.6958 15.6857 17.0875C16.0386 17.4792 16.215 17.95 16.215 18.5C16.215 19.05 16.0386 19.5208 15.6857 19.9125C15.3329 20.3042 14.9088 20.5 14.4133 20.5ZM4.63929 4.5L6.80128 9.5H13.1071L15.5844 4.5H4.63929ZM3.7835 2.5H17.0708C17.4161 2.5 17.6788 2.67083 17.859 3.0125C18.0392 3.35417 18.0467 3.7 17.8815 4.05L14.6836 10.45C14.5184 10.7833 14.297 11.0417 14.0192 11.225C13.7414 11.4083 13.4374 11.5 13.1071 11.5H6.39591L5.40499 13.5H16.215V15.5H5.40499C4.72937 15.5 4.2189 15.1708 3.87358 14.5125C3.52826 13.8542 3.51325 13.2 3.82854 12.55L5.04466 10.1L1.80166 2.5H0V0.5H2.9277L3.7835 2.5Z" fill="white"/>
</svg>
