<svg width="8" height="8" viewBox="0 0 8 8" fill="none" xmlns="http://www.w3.org/2000/svg">
<g id="Vector">
<path d="M7.80013 3.64407L6.19049 5.10202L6.67267 7.27265C6.69818 7.38612 6.6909 7.50488 6.65174 7.61409C6.61257 7.72329 6.54326 7.81809 6.45246 7.88663C6.36167 7.95517 6.25342 7.99441 6.14125 7.99945C6.02908 8.00448 5.91797 7.97509 5.82181 7.91495L3.99768 6.76666L2.17747 7.91495C2.08131 7.97509 1.9702 8.00448 1.85804 7.99945C1.74587 7.99441 1.63762 7.95517 1.54682 7.88663C1.45603 7.81809 1.38671 7.72329 1.34755 7.61409C1.30838 7.50488 1.3011 7.38612 1.32662 7.27265L1.80808 5.10424L0.198089 3.64407C0.112935 3.56784 0.0513599 3.46722 0.0210852 3.35483C-0.00918958 3.24243 -0.00681617 3.12326 0.0279077 3.01225C0.0626317 2.90125 0.12816 2.80336 0.216276 2.73085C0.304392 2.65835 0.411173 2.61445 0.523228 2.60468L2.64537 2.41392L3.47375 0.363303C3.51701 0.255703 3.58997 0.163793 3.68346 0.0991445C3.77694 0.034496 3.88677 0 3.99911 0C4.11145 0 4.22127 0.034496 4.31476 0.0991445C4.40824 0.163793 4.48121 0.255703 4.52447 0.363303L5.35534 2.41392L7.47677 2.60468C7.58883 2.61445 7.69561 2.65835 7.78372 2.73085C7.87184 2.80336 7.93737 2.90125 7.97209 3.01225C8.00682 3.12326 8.00919 3.24243 7.97891 3.35483C7.94864 3.46722 7.88706 3.56784 7.80191 3.64407H7.80013Z" fill="#FFE500"/>
<path d="M7.72679 3.50811L7.69943 3.53289L6.08979 4.99084L6.02515 5.0494L6.04406 5.13454L6.52624 7.30517L6.52632 7.30555C6.54561 7.39133 6.54007 7.48111 6.51054 7.56345C6.48103 7.64575 6.4291 7.71632 6.36209 7.76691C6.29515 7.81744 6.21598 7.84594 6.13452 7.8496C6.05314 7.85325 5.97215 7.832 5.90154 7.78789C5.90148 7.78785 5.90142 7.78781 5.90135 7.78777L4.07759 6.63972L3.99759 6.58936L3.91765 6.6398L2.09793 7.78777C2.09785 7.78783 2.09776 7.78788 2.09768 7.78793C2.02709 7.83201 1.94612 7.85325 1.86476 7.8496C1.78331 7.84594 1.70414 7.81744 1.6372 7.76691C1.57019 7.71632 1.51826 7.64575 1.48874 7.56345C1.45921 7.48111 1.45368 7.39133 1.47296 7.30555L1.47305 7.30516L1.95451 5.13675L1.9734 5.05168L1.90885 4.99313L0.29886 3.53296L0.298862 3.53295L0.298132 3.5323C0.235069 3.47585 0.188783 3.40068 0.165923 3.31581C0.143056 3.23092 0.14486 3.14081 0.171067 3.05703C0.197263 2.97329 0.246441 2.90028 0.311585 2.84668C0.376662 2.79313 0.45486 2.76121 0.53626 2.75412L0.536658 2.75408L2.6588 2.56332L2.75012 2.55511L2.78445 2.4701L3.61283 0.419486L3.61292 0.419256C3.64545 0.338332 3.69997 0.270097 3.76877 0.222518C3.8375 0.17499 3.91764 0.15 3.99911 0.15C4.08058 0.15 4.16071 0.17499 4.22944 0.222518C4.29824 0.270097 4.35276 0.338332 4.3853 0.419256L4.38545 0.419632L5.21632 2.47025L5.2507 2.55511L5.34191 2.56332L7.46334 2.75408L7.46374 2.75411C7.54514 2.76121 7.62334 2.79313 7.68841 2.84668C7.75356 2.90028 7.80274 2.97329 7.82893 3.05703C7.85514 3.14081 7.85694 3.23092 7.83408 3.31581C7.81434 3.38907 7.77715 3.45511 7.72679 3.50811Z" stroke="#222222" stroke-opacity="0.8" stroke-width="0.3"/>
</g>
</svg>
