<svg width="18" height="18" viewBox="0 0 18 18" fill="none" xmlns="http://www.w3.org/2000/svg">
<path d="M17.062 8.14914V15.2707C17.062 15.7634 16.8868 16.1853 16.5362 16.5365C16.1851 16.887 15.7631 17.0623 15.2705 17.0623H2.72933C2.23664 17.0623 1.81502 16.887 1.46446 16.5365C1.11331 16.1853 0.937735 15.7634 0.937735 15.2707V8.14914C0.594347 7.83561 0.32949 7.4325 0.143165 6.93982C-0.0437576 6.44713 -0.0476394 5.90965 0.13152 5.32739L1.0721 2.28168C1.19154 1.8935 1.40444 1.57251 1.71081 1.3187C2.01657 1.06489 2.37101 0.937988 2.77412 0.937988H15.2257C15.6288 0.937988 15.9796 1.06101 16.2782 1.30706C16.5768 1.5537 16.7933 1.87857 16.9277 2.28168L17.8683 5.32739C18.0474 5.90965 18.0438 6.43966 17.8575 6.91742C17.6706 7.39518 17.4054 7.80575 17.062 8.14914ZM10.9706 7.20856C11.3738 7.20856 11.6798 7.0703 11.8888 6.7938C12.0979 6.5179 12.18 6.20825 12.1352 5.86486L11.6425 2.72958H9.89569V6.04402C9.89569 6.35755 10.0002 6.63017 10.2092 6.86188C10.4182 7.093 10.672 7.20856 10.9706 7.20856ZM6.93956 7.20856C7.28295 7.20856 7.56304 7.093 7.77982 6.86188C7.996 6.63017 8.1041 6.35755 8.1041 6.04402V2.72958H6.3573L5.86461 5.86486C5.80489 6.22318 5.88342 6.53671 6.1002 6.80545C6.31639 7.07419 6.59618 7.20856 6.93956 7.20856ZM2.95327 7.20856C3.22201 7.20856 3.45701 7.11151 3.65827 6.91742C3.86012 6.72333 3.98344 6.47699 4.02823 6.17839L4.52092 2.72958H2.77412L1.87832 5.73049C1.78874 6.02909 1.83711 6.35009 2.02344 6.69347C2.21036 7.03686 2.52031 7.20856 2.95327 7.20856ZM15.0465 7.20856C15.4795 7.20856 15.793 7.03686 15.9871 6.69347C16.1812 6.35009 16.226 6.02909 16.1215 5.73049L15.1809 2.72958H13.4789L13.9716 6.17839C14.0163 6.47699 14.1397 6.72333 14.3415 6.91742C14.5428 7.11151 14.7778 7.20856 15.0465 7.20856ZM2.72933 15.2707H15.2705V8.95536C15.1958 8.98522 15.1474 9.00015 15.1253 9.00015H15.0465C14.6434 9.00015 14.2887 8.93296 13.9823 8.79859C13.6765 8.66422 13.3744 8.44774 13.0758 8.14914C12.807 8.41788 12.501 8.6269 12.1576 8.7762C11.8142 8.9255 11.4484 9.00015 11.0602 9.00015C10.6571 9.00015 10.28 8.9255 9.92883 8.7762C9.57828 8.6269 9.26863 8.41788 8.99989 8.14914C8.74608 8.41788 8.45137 8.6269 8.11574 8.7762C7.77952 8.9255 7.41732 9.00015 7.02914 9.00015C6.59618 9.00015 6.20412 8.9255 5.85296 8.7762C5.50241 8.6269 5.19276 8.41788 4.92402 8.14914C4.6105 8.46267 4.30085 8.68274 3.99509 8.80934C3.68872 8.93654 3.34145 9.00015 2.95327 9.00015H2.85295C2.81532 9.00015 2.77412 8.98522 2.72933 8.95536V15.2707Z" fill="white"/>
</svg>
