<svg width="14" height="8" viewBox="0 0 14 8" fill="none" xmlns="http://www.w3.org/2000/svg">
<path d="M3.75 7.5C2.70833 7.5 1.82292 7.13542 1.09375 6.40625C0.364583 5.67708 0 4.79167 0 3.75C0 2.70833 0.364583 1.82292 1.09375 1.09375C1.82292 0.364583 2.70833 0 3.75 0H10C11.0417 0 11.9271 0.364583 12.6562 1.09375C13.3854 1.82292 13.75 2.70833 13.75 3.75C13.75 4.79167 13.3854 5.67708 12.6562 6.40625C11.9271 7.13542 11.0417 7.5 10 7.5H3.75ZM3.75 6.25H10C10.6875 6.25 11.276 6.00521 11.7656 5.51562C12.2552 5.02604 12.5 4.4375 12.5 3.75C12.5 3.0625 12.2552 2.47396 11.7656 1.98438C11.276 1.49479 10.6875 1.25 10 1.25H3.75C3.0625 1.25 2.47396 1.49479 1.98438 1.98438C1.49479 2.47396 1.25 3.0625 1.25 3.75C1.25 4.4375 1.49479 5.02604 1.98438 5.51562C2.47396 6.00521 3.0625 6.25 3.75 6.25ZM10 5.625C10.5208 5.625 10.9635 5.44271 11.3281 5.07812C11.6927 4.71354 11.875 4.27083 11.875 3.75C11.875 3.22917 11.6927 2.78646 11.3281 2.42188C10.9635 2.05729 10.5208 1.875 10 1.875C9.47917 1.875 9.03646 2.05729 8.67188 2.42188C8.30729 2.78646 8.125 3.22917 8.125 3.75C8.125 4.27083 8.30729 4.71354 8.67188 5.07812C9.03646 5.44271 9.47917 5.625 10 5.625Z" fill="white"/>
</svg>
